<svg width="12" height="12" viewBox="0 0 12 12" fill="none" xmlns="http://www.w3.org/2000/svg">
<path d="M11.5 10.0859L7.41418 6.00008L11.4998 1.9143C11.6874 1.72676 11.7927 1.47241 11.7927 1.20719C11.7927 0.941975 11.6874 0.687622 11.4998 0.500086C11.3123 0.312549 11.058 0.207192 10.7927 0.207193C10.5275 0.207193 10.2732 0.312549 10.0856 0.500086L5.99997 4.58587L1.91434 0.500122C1.7268 0.312586 1.47244 0.207229 1.20723 0.207229C0.942012 0.207229 0.687658 0.312586 0.500121 0.500122C0.312585 0.687658 0.207229 0.942012 0.207229 1.20723C0.207229 1.47245 0.312585 1.7268 0.500122 1.91434L4.58575 6.00008L0.500121 10.0857C0.312585 10.2732 0.207228 10.5276 0.207228 10.7928C0.207228 11.058 0.312585 11.3124 0.500121 11.4999C0.687658 11.6875 0.94201 11.7928 1.20723 11.7928C1.47244 11.7928 1.7268 11.6875 1.91433 11.4999L5.99997 7.41429L10.0858 11.5001C10.2733 11.6876 10.5277 11.793 10.7929 11.793C11.0581 11.793 11.3125 11.6876 11.5 11.5001C11.6875 11.3126 11.7929 11.0582 11.7929 10.793C11.7929 10.5278 11.6875 10.2734 11.5 10.0859Z" fill="#C3C3C6"/>
</svg>
